# xmcd
#
# Track frame offsets:
#	150
#	13593
#	27113
#	39615
#	50540
#	67973
#	81268
#	96135
#	110915
#	123135
#	132310
#	148638
#	164535
#	176915
#	190330
#	204655
#	218385
#	231920
#	254198
#	268108
#
# Disc length: 3739
#
# Revision: 2
# Processed by: cddbd v1.5.1PL0 Copyright (c) Steve Scherf et al.
# Submitted via: CDex 1.30
# Normalized: r1:TDELIM( - )
#
DISCID=2c0e9914
DTITLE=Various Artist - Boogie Woogie Piano Introduced By Jools Holland
DYEAR=1995
DGENRE=Blues
TTITLE0=Albert Ammons - Boogie Woogie Stomp
TTITLE1=Meade Lux Lewis - Honky Tonk Train Blues
TTITLE2=Jimmy Yancey - Yancey Stomp
TTITLE3=Pete Johnson - Just Jazz Boogie
TTITLE4="Cripple" Clarence Lofton - Streamline Train
TTITLE5=Big Maceo Merriweather - Chicago Breakdown
TTITLE6=Clarence "Pinetop" Smith - Jump Steady Blues
TTITLE7=Speckled Red - St. Louis Stomp
TTITLE8=Pete Johnson and Albert Ammons - Sixth Avenue Express
TTITLE9=Jools Holland - Shoot Shoot
TTITLE10=Albert Ammons - Bass Goin' Crazy
TTITLE11=Meade Lux Lewis - Whistlin' Blues
TTITLE12=Jimmy Yancey - Tell Em About Me
TTITLE13=Pete Johnson - Basement Boogie
TTITLE14=Clarence "Pinetop" Smith - Pinetop's Boogie Woogie
TTITLE15=Charles "Cow Cow" Davenport - State Street Jive
TTITLE16=Harry James and His Boogie Woogie Trio - Boo Woo
TTITLE17=Meade Lux Lewis, Albert Ammons and Pete Johnson - Boogie Woogie Prayer
TTITLE18=Count Basie - Boogie Woogie
TTITLE19=Jools Holland - Rotten Row Revisited
EXTD=YEAR: 1995  ID3G:   0
EXTT0=
EXTT1=
EXTT2=
EXTT3=
EXTT4=
EXTT5=
EXTT6=
EXTT7=
EXTT8=
EXTT9=
EXTT10=
EXTT11=
EXTT12=
EXTT13=
EXTT14=
EXTT15=
EXTT16=
EXTT17=
EXTT18=
EXTT19=
PLAYORDER=
